<svg width="25" height="29" viewBox="0 0 25 29" fill="none" xmlns="http://www.w3.org/2000/svg">
<g clip-path="url(#clip0_61_11)">
<path d="M12.5056 8.21099C8.95648 8.21099 6.09375 11.0165 6.09375 14.4946C6.09375 17.9727 8.95648 20.7782 12.5056 20.7782C16.0547 20.7782 18.9174 17.9727 18.9174 14.4946C18.9174 11.0165 16.0547 8.21099 12.5056 8.21099ZM12.5056 18.5797C10.2121 18.5797 8.33706 16.7477 8.33706 14.4946C8.33706 12.2415 10.2065 10.4094 12.5056 10.4094C14.8047 10.4094 16.6741 12.2415 16.6741 14.4946C16.6741 16.7477 14.7991 18.5797 12.5056 18.5797ZM20.6752 7.95396C20.6752 8.7688 20.0056 9.41958 19.1797 9.41958C18.3482 9.41958 17.6842 8.76333 17.6842 7.95396C17.6842 7.14458 18.3538 6.48833 19.1797 6.48833C20.0056 6.48833 20.6752 7.14458 20.6752 7.95396ZM24.9219 9.44146C24.827 7.47817 24.3694 5.73911 22.9018 4.3063C21.4397 2.87349 19.6652 2.42505 17.6618 2.32661C15.5971 2.21177 9.40849 2.21177 7.34375 2.32661C5.34599 2.41958 3.57143 2.86802 2.1038 4.30083C0.636165 5.73364 0.184156 7.4727 0.0837097 9.43599C-0.0334778 11.4594 -0.0334778 17.5243 0.0837097 19.5477C0.178576 21.511 0.636165 23.25 2.1038 24.6829C3.57143 26.1157 5.34041 26.5641 7.34375 26.6625C9.40849 26.7774 15.5971 26.7774 17.6618 26.6625C19.6652 26.5696 21.4397 26.1211 22.9018 24.6829C24.3638 23.25 24.8214 21.511 24.9219 19.5477C25.0391 17.5243 25.0391 11.4649 24.9219 9.44146ZM22.2545 21.7188C21.8192 22.7907 20.9766 23.6165 19.8772 24.0485C18.231 24.6883 14.3248 24.5407 12.5056 24.5407C10.6864 24.5407 6.77456 24.6829 5.13393 24.0485C4.04018 23.6219 3.19755 22.7961 2.7567 21.7188C2.1038 20.1055 2.25447 16.2774 2.25447 14.4946C2.25447 12.7118 2.10938 8.87817 2.7567 7.27036C3.19197 6.19849 4.0346 5.3727 5.13393 4.94067C6.78014 4.30083 10.6864 4.44849 12.5056 4.44849C14.3248 4.44849 18.2366 4.3063 19.8772 4.94067C20.971 5.36724 21.8136 6.19302 22.2545 7.27036C22.9074 8.88364 22.7567 12.7118 22.7567 14.4946C22.7567 16.2774 22.9074 20.111 22.2545 21.7188Z" fill="#9CA3AF"/>
</g>
<defs>
<clipPath id="clip0_61_11">
<path d="M0 0.5H25V28.5H0V0.5Z" fill="white"/>
</clipPath>
</defs>
</svg>
